<svg width="100" height="100" viewBox="0 0 100 100" fill="none" xmlns="http://www.w3.org/2000/svg">
<path fill-rule="evenodd" clip-rule="evenodd" d="M45.9623 53.3376L23.604 11.2834C23.4755 11.0418 23.3959 10.7773 23.3697 10.505C23.3435 10.2326 23.3712 9.95777 23.4511 9.69612C23.6127 9.1677 23.9776 8.72509 24.4654 8.46568C24.9533 8.20626 25.5243 8.15129 26.0527 8.31284C26.3144 8.39284 26.5577 8.52358 26.7688 8.69762C26.9799 8.87165 27.1547 9.08556 27.2832 9.32714L49.6436 51.3814L52.8144 49.6938C53.7808 49.1801 54.839 48.8617 55.9285 48.7569C57.018 48.6521 58.1174 48.763 59.164 49.0832C60.2107 49.4034 61.184 49.9266 62.0284 50.623C62.8728 51.3193 63.5717 52.1752 64.0853 53.1418L65.4353 55.6814L79.7478 76.6272L61.5436 86.3043L55.2373 73.8397L51.5207 75.721L57.8644 88.2626L50.0603 92.4106L40.6957 68.8314L39.3477 66.2939C38.8339 65.3276 38.5154 64.2695 38.4105 63.1801C38.3055 62.0907 38.4162 60.9913 38.7362 59.9447C39.0562 58.8981 39.5792 57.9248 40.2754 57.0803C40.9715 56.2358 41.8272 55.5368 42.7936 55.023L45.9623 53.3376ZM54.7686 53.3751L44.7477 58.7022C44.2646 58.9591 43.8367 59.3086 43.4886 59.7308C43.1406 60.1531 42.879 60.6397 42.7191 61.163C42.5591 61.6863 42.5037 62.236 42.5562 62.7807C42.6087 63.3254 42.7679 63.8545 43.0248 64.3376L44.3727 66.8751L61.754 57.6334L60.404 55.098C60.1471 54.6148 59.7976 54.187 59.3754 53.8389C58.9531 53.4908 58.4665 53.2293 57.9432 53.0693C57.4199 52.9093 56.8702 52.854 56.3255 52.9065C55.7808 52.9589 55.2517 53.1182 54.7686 53.3751Z" fill="black"/>
<path d="M37.0166 73.6668C36.6632 73.2423 36.1556 72.9755 35.6056 72.9251C35.0555 72.8747 34.5079 73.0448 34.0833 73.398H34.0874L34.0645 73.4147L33.9353 73.5147C33.7482 73.6548 33.5572 73.7896 33.3624 73.9189C32.8458 74.2626 32.0749 74.7314 31.0833 75.2022C28.5343 76.4273 25.7447 77.0699 22.9166 77.0834C22.3641 77.0834 21.8341 77.3029 21.4434 77.6936C21.0527 78.0843 20.8333 78.6142 20.8333 79.1668C20.8333 79.7193 21.0527 80.2492 21.4434 80.6399C21.8341 81.0306 22.3641 81.2501 22.9166 81.2501C26.3645 81.2368 29.7662 80.4561 32.8749 78.9647C33.8446 78.5055 34.7803 77.9778 35.6749 77.3855C36.0099 77.1615 36.3365 76.9252 36.6541 76.6772L36.7166 76.6293L36.7374 76.6126L36.7437 76.6043H36.7478L36.7499 76.6001C37.1741 76.2464 37.4405 75.7387 37.4905 75.1886C37.5405 74.6386 37.3701 74.0912 37.0166 73.6668ZM41.3166 84.2605C41.4685 84.4881 41.574 84.7434 41.6272 85.0118C41.6804 85.2803 41.6802 85.5565 41.6266 85.8248C41.573 86.0932 41.4671 86.3483 41.3149 86.5757C41.1627 86.8031 40.9672 86.9983 40.7395 87.1501L40.7353 87.1543L40.727 87.1584L40.7062 87.1709L40.6416 87.2126C40.2809 87.442 39.9148 87.6629 39.5437 87.8751C38.8124 88.2939 37.7728 88.8501 36.5228 89.4043C34.0645 90.498 30.627 91.6668 27.0833 91.6668C26.5307 91.6668 26.0008 91.4473 25.6101 91.0566C25.2194 90.6659 24.9999 90.136 24.9999 89.5834C24.9999 89.0309 25.2194 88.501 25.6101 88.1103C26.0008 87.7196 26.5307 87.5001 27.0833 87.5001C29.7874 87.5001 32.6041 86.5855 34.8312 85.5959C35.9915 85.0782 37.1174 84.4868 38.202 83.8251C38.2628 83.7893 38.3225 83.7518 38.3812 83.7126L38.4228 83.6876L38.427 83.6834C38.6546 83.5316 38.9099 83.426 39.1783 83.3728C39.4468 83.3196 39.723 83.3198 39.9913 83.3734C40.2597 83.427 40.5148 83.5329 40.7422 83.6851C40.9696 83.8374 41.1648 84.0329 41.3166 84.2605Z" fill="black"/>
</svg>
