<svg width="100" height="100" viewBox="0 0 100 100" fill="none" xmlns="http://www.w3.org/2000/svg">
<path d="M76.0417 4.16663C74.9366 4.16663 73.8768 4.60561 73.0954 5.38701C72.314 6.16842 71.875 7.22822 71.875 8.33329V29.1666C71.875 30.2717 72.314 31.3315 73.0954 32.1129C73.8768 32.8943 74.9366 33.3333 76.0417 33.3333H81.25V93.2291C81.25 93.9198 81.5244 94.5822 82.0127 95.0705C82.5011 95.5589 83.1635 95.8333 83.8542 95.8333C84.5448 95.8333 85.2072 95.5589 85.6956 95.0705C86.184 94.5822 86.4583 93.9198 86.4583 93.2291V33.3333H91.6667C92.7717 33.3333 93.8316 32.8943 94.613 32.1129C95.3944 31.3315 95.8333 30.2717 95.8333 29.1666V8.33329C95.8333 7.22822 95.3944 6.16842 94.613 5.38701C93.8316 4.60561 92.7717 4.16663 91.6667 4.16663H76.0417ZM67.7083 12.8895C66.6721 12.6302 65.6078 12.4993 64.5396 12.5H34.7354C31.8212 12.5002 28.9912 13.4781 26.6985 15.2771C24.4058 17.0761 22.7829 19.5923 22.0896 22.4229L20.4375 29.1666H15.1042C14.4135 29.1666 13.7511 29.441 13.2627 29.9294C12.7744 30.4177 12.5 31.0801 12.5 31.7708C12.5 32.4615 12.7744 33.1238 13.2627 33.6122C13.7511 34.1006 14.4135 34.375 15.1042 34.375H19.1625L18.2604 38.0562C16.5691 38.6876 15.111 39.8206 14.0815 41.3036C13.052 42.7866 12.5002 44.5488 12.5 46.3541V82.8125C12.5 84.6082 13.2134 86.3304 14.4831 87.6002C15.7529 88.8699 17.4751 89.5833 19.2708 89.5833H26.5625C28.3582 89.5833 30.0804 88.8699 31.3502 87.6002C32.62 86.3304 33.3333 84.6082 33.3333 82.8125V76.0416H66.6667V82.8125C66.6667 84.6082 67.38 86.3304 68.6498 87.6002C69.9196 88.8699 71.6418 89.5833 73.4375 89.5833H77.0833V84.375H73.4375C73.0231 84.375 72.6257 84.2103 72.3326 83.9173C72.0396 83.6243 71.875 83.2269 71.875 82.8125V76.0416H77.0833V70.8333H17.7083V46.3541C17.7083 44.3416 19.3417 42.7083 21.3542 42.7083H77.0833V37.5H23.7583L27.1479 23.6625C27.5639 21.964 28.5376 20.4542 29.9132 19.3748C31.2888 18.2953 32.9868 17.7085 34.7354 17.7083H64.5417C65.6583 17.7083 66.7354 17.9458 67.7104 18.3791L67.7083 12.8895ZM42.1875 58.3333C41.4968 58.3333 40.8345 58.6077 40.3461 59.096C39.8577 59.5844 39.5833 60.2468 39.5833 60.9375C39.5833 61.6281 39.8577 62.2905 40.3461 62.7789C40.8345 63.2673 41.4968 63.5416 42.1875 63.5416H57.8125C58.5032 63.5416 59.1656 63.2673 59.6539 62.7789C60.1423 62.2905 60.4167 61.6281 60.4167 60.9375C60.4167 60.2468 60.1423 59.5844 59.6539 59.096C59.1656 58.6077 58.5032 58.3333 57.8125 58.3333H42.1875ZM29.1667 58.3333C30.2717 58.3333 31.3315 57.8943 32.1129 57.1129C32.8943 56.3315 33.3333 55.2717 33.3333 54.1666C33.3333 53.0616 32.8943 52.0017 32.1129 51.2203C31.3315 50.4389 30.2717 50 29.1667 50C28.0616 50 27.0018 50.4389 26.2204 51.2203C25.439 52.0017 25 53.0616 25 54.1666C25 55.2717 25.439 56.3315 26.2204 57.1129C27.0018 57.8943 28.0616 58.3333 29.1667 58.3333ZM75 54.1666C75 55.2717 74.561 56.3315 73.7796 57.1129C72.9982 57.8943 71.9384 58.3333 70.8333 58.3333C69.7283 58.3333 68.6685 57.8943 67.8871 57.1129C67.1057 56.3315 66.6667 55.2717 66.6667 54.1666C66.6667 53.0616 67.1057 52.0017 67.8871 51.2203C68.6685 50.4389 69.7283 50 70.8333 50C71.9384 50 72.9982 50.4389 73.7796 51.2203C74.561 52.0017 75 53.0616 75 54.1666ZM17.7083 82.8125V76.0416H28.125V82.8125C28.125 83.2269 27.9604 83.6243 27.6674 83.9173C27.3743 84.2103 26.9769 84.375 26.5625 84.375H19.2708C18.8564 84.375 18.459 84.2103 18.166 83.9173C17.873 83.6243 17.7083 83.2269 17.7083 82.8125Z" fill="black"/>
</svg>
