<svg width="40" height="40" viewBox="0 0 40 40" fill="none" xmlns="http://www.w3.org/2000/svg">
<path d="M21.028 10C22.153 10.003 22.724 10.009 23.217 10.023L23.411 10.03C23.635 10.038 23.856 10.048 24.123 10.06C25.187 10.11 25.913 10.278 26.55 10.525C27.21 10.779 27.766 11.123 28.322 11.678C28.8305 12.1779 29.2239 12.7826 29.475 13.45C29.722 14.087 29.89 14.813 29.94 15.878C29.952 16.144 29.962 16.365 29.97 16.59L29.976 16.784C29.991 17.276 29.997 17.847 29.999 18.972L30 19.718V21.028C30.0024 21.7574 29.9948 22.4868 29.977 23.216L29.971 23.41C29.963 23.635 29.953 23.856 29.941 24.122C29.891 25.187 29.721 25.912 29.475 26.55C29.2246 27.2178 28.8311 27.8226 28.322 28.322C27.8219 28.8303 27.2173 29.2238 26.55 29.475C25.913 29.722 25.187 29.89 24.123 29.94C23.8857 29.9512 23.6483 29.9612 23.411 29.97L23.217 29.976C22.724 29.99 22.153 29.997 21.028 29.999L20.282 30H18.973C18.2432 30.0025 17.5135 29.9949 16.784 29.977L16.59 29.971C16.3526 29.962 16.1152 29.9517 15.878 29.94C14.814 29.89 14.088 29.722 13.45 29.475C12.7826 29.2244 12.1782 28.8308 11.679 28.322C11.17 27.8223 10.7762 27.2176 10.525 26.55C10.278 25.913 10.11 25.187 10.06 24.122C10.0488 23.8847 10.0388 23.6474 10.03 23.41L10.025 23.216C10.0065 22.4868 9.9982 21.7574 9.99997 21.028V18.972C9.99718 18.2426 10.0045 17.5132 10.022 16.784L10.029 16.59C10.037 16.365 10.047 16.144 10.059 15.878C10.109 14.813 10.277 14.088 10.524 13.45C10.7751 12.7819 11.1697 12.177 11.68 11.678C12.1791 11.1695 12.7831 10.776 13.45 10.525C14.088 10.278 14.813 10.11 15.878 10.06C16.144 10.048 16.366 10.038 16.59 10.03L16.784 10.024C17.5132 10.0062 18.2426 9.99857 18.972 10.001L21.028 10ZM20 15C18.6739 15 17.4021 15.5268 16.4644 16.4645C15.5268 17.4021 15 18.6739 15 20C15 21.3261 15.5268 22.5979 16.4644 23.5355C17.4021 24.4732 18.6739 25 20 25C21.326 25 22.5978 24.4732 23.5355 23.5355C24.4732 22.5979 25 21.3261 25 20C25 18.6739 24.4732 17.4021 23.5355 16.4645C22.5978 15.5268 21.326 15 20 15ZM20 17C20.3939 16.9999 20.7841 17.0775 21.1481 17.2282C21.5121 17.3789 21.8428 17.5998 22.1214 17.8783C22.4001 18.1569 22.6211 18.4875 22.7719 18.8515C22.9227 19.2154 23.0004 19.6055 23.0005 19.9995C23.0005 20.3935 22.923 20.7836 22.7723 21.1476C22.6216 21.5116 22.4007 21.8423 22.1221 22.121C21.8436 22.3996 21.5129 22.6206 21.149 22.7714C20.785 22.9223 20.3949 22.9999 20.001 23C19.2053 23 18.4423 22.6839 17.8796 22.1213C17.317 21.5587 17.001 20.7956 17.001 20C17.001 19.2044 17.317 18.4413 17.8796 17.8787C18.4423 17.3161 19.2053 17 20.001 17M25.251 13.5C24.9194 13.5 24.6015 13.6317 24.3671 13.8661C24.1327 14.1005 24.001 14.4185 24.001 14.75C24.001 15.0815 24.1327 15.3995 24.3671 15.6339C24.6015 15.8683 24.9194 16 25.251 16C25.5825 16 25.9004 15.8683 26.1349 15.6339C26.3693 15.3995 26.501 15.0815 26.501 14.75C26.501 14.4185 26.3693 14.1005 26.1349 13.8661C25.9004 13.6317 25.5825 13.5 25.251 13.5Z" fill="#555555"/>
<circle cx="20" cy="20" r="19.5" stroke="#555555"/>
</svg>
