<svg width="100" height="100" viewBox="0 0 100 100" fill="none" xmlns="http://www.w3.org/2000/svg">
<path d="M8.33325 62.5C15.2916 59.375 22.2083 56.25 29.1666 54.875V20.8334C29.1666 17.5182 30.4835 14.3387 32.8278 11.9945C35.172 9.65033 38.3514 8.33337 41.6666 8.33337C47.1249 8.33337 51.7499 11.7917 53.4583 16.6667H41.6666C40.5615 16.6667 39.5017 17.1057 38.7203 17.8871C37.9389 18.6685 37.4999 19.7283 37.4999 20.8334V25H58.3333V20.8334C58.3333 17.5182 59.6502 14.3387 61.9944 11.9945C64.3386 9.65033 67.5181 8.33337 70.8333 8.33337C76.2916 8.33337 80.9166 11.7917 82.6249 16.6667H70.8333C69.7282 16.6667 68.6684 17.1057 67.887 17.8871C67.1056 18.6685 66.6666 19.7283 66.6666 20.8334V62.25C74.9999 60.9167 83.3333 54.1667 91.6666 54.1667V62.5C82.4166 62.5 73.1666 70.8334 63.8749 70.8334C54.6249 70.8334 45.3749 62.5 36.1249 62.5C26.8333 62.5 17.5833 66.6667 8.33325 70.8334V62.5ZM58.3333 33.3334H37.4999V41.6667H58.3333V33.3334ZM58.3333 50H37.4999V54.1667C44.4583 54.8334 51.3749 59.625 58.3333 61.625V50ZM8.33325 79.1667C17.5833 75 26.8333 70.8334 36.1249 70.8334C45.3749 70.8334 54.6249 79.1667 63.8749 79.1667C73.1666 79.1667 82.4166 70.8334 91.6666 70.8334V79.1667C82.4166 79.1667 73.1666 87.5 63.8749 87.5C54.6249 87.5 45.3749 79.1667 36.1249 79.1667C26.8333 79.1667 17.5833 83.3334 8.33325 87.5V79.1667Z" fill="black"/>
</svg>
