<svg width="40" height="40" viewBox="0 0 40 40" fill="none" xmlns="http://www.w3.org/2000/svg">
<g clip-path="url(#clip0_39_189)">
<path fill-rule="evenodd" clip-rule="evenodd" d="M20 12C20.855 12 21.732 12.022 22.582 12.058L23.586 12.106L24.547 12.163L25.447 12.224L26.269 12.288C27.161 12.3563 28.0004 12.7369 28.6395 13.363C29.2786 13.9891 29.6764 14.8205 29.763 15.711L29.803 16.136L29.878 17.046C29.948 17.989 30 19.017 30 20C30 20.983 29.948 22.011 29.878 22.954L29.803 23.864C29.79 24.01 29.777 24.151 29.763 24.289C29.6764 25.1796 29.2784 26.0112 28.6391 26.6373C27.9999 27.2634 27.1602 27.6439 26.268 27.712L25.448 27.775L24.548 27.837L23.586 27.894L22.582 27.942C21.7218 27.9794 20.861 27.9987 20 28C19.139 27.9987 18.2782 27.9794 17.418 27.942L16.414 27.894L15.453 27.837L14.553 27.775L13.731 27.712C12.839 27.6437 11.9996 27.2631 11.3605 26.637C10.7214 26.0109 10.3236 25.1795 10.237 24.289L10.197 23.864L10.122 22.954C10.0455 21.9711 10.0048 20.9858 10 20C10 19.017 10.052 17.989 10.122 17.046L10.197 16.136C10.21 15.99 10.223 15.849 10.237 15.711C10.3235 14.8207 10.7212 13.9894 11.3601 13.3633C11.999 12.7373 12.8381 12.3565 13.73 12.288L14.551 12.224L15.451 12.163L16.413 12.106L17.417 12.058C18.2775 12.0206 19.1387 12.0013 20 12ZM18 17.575V22.425C18 22.887 18.5 23.175 18.9 22.945L23.1 20.52C23.1914 20.4674 23.2673 20.3916 23.3201 20.3003C23.3729 20.209 23.4007 20.1055 23.4007 20C23.4007 19.8945 23.3729 19.791 23.3201 19.6997C23.2673 19.6084 23.1914 19.5326 23.1 19.48L18.9 17.056C18.8088 17.0033 18.7053 16.9756 18.5999 16.9756C18.4945 16.9756 18.3911 17.0034 18.2998 17.0561C18.2086 17.1088 18.1329 17.1846 18.0802 17.2759C18.0276 17.3671 17.9999 17.4706 18 17.576" fill="#555555"/>
</g>
<circle cx="20" cy="20" r="19.5" stroke="#555555"/>
<defs>
<clipPath id="clip0_39_189">
<rect width="24" height="24" fill="white" transform="translate(8 8)"/>
</clipPath>
</defs>
</svg>
